<?xml version="1.0" encoding="utf-8"?>
<!-- Generator: Adobe Illustrator 25.0.1, SVG Export Plug-In . SVG Version: 6.00 Build 0)  -->
<svg version="1.1" id="Layer_1" xmlns="http://www.w3.org/2000/svg" xmlns:xlink="http://www.w3.org/1999/xlink" x="0px" y="0px"
	 viewBox="0 0 512.4 507.5" style="enable-background:new 0 0 512.4 507.5;" xml:space="preserve">
<style type="text/css">
	.st0{fill:#2A432F;}
	.st1{fill:#F8F1DE;}
</style>
<circle class="st0" cx="256.2" cy="253.8" r="251.2"/>
<g id="Layer_1_2_">
	<path class="st1" d="M120.3,349.5h164.2v55.3l34-20.4l34,20.4v-55.3h39.6V134.3H120.3V349.5z M342.6,311c-0.5,0.5-1.1,1-1.6,1.5
		c-0.3,0.3-0.6,0.6-0.9,0.8c-0.4,0.3-0.7,0.5-1.1,0.8c-4.8,3.7-10.5,6.1-16.8,6.8c-0.1,0-0.2,0-0.3,0c-1.1,0.1-2.3,0.2-3.5,0.2
		c-1.2,0-2.3-0.1-3.5-0.2c-0.1,0-0.2,0-0.3,0c-6.3-0.7-12-3.1-16.8-6.8c-0.4-0.3-0.7-0.5-1.1-0.8c-0.3-0.3-0.6-0.5-0.9-0.8
		c-0.5-0.5-1.1-1-1.6-1.5c-6.1-6.1-9.8-14.6-9.8-23.9c0-18.7,15.2-34,34-34s34,15.2,34,34C352.5,296.5,348.7,304.9,342.6,311z
		 M341.1,384.8l-22.7-13.6l-22.7,13.6v-35.3v-23c0.2,0.1,0.4,0.2,0.6,0.3c1.5,0.8,3,1.6,4.6,2.3c0.1,0,0.1,0.1,0.2,0.1
		c5.3,2.2,11.1,3.4,17.2,3.4c6.1,0,11.9-1.2,17.2-3.4c0.1,0,0.1-0.1,0.2-0.1c1.6-0.7,3.1-1.4,4.6-2.3c0.2-0.1,0.4-0.2,0.6-0.3v23
		L341.1,384.8L341.1,384.8z M131.6,145.6h249.2v192.5h-28.3V317c7-8,11.3-18.4,11.3-29.9c0-25-20.3-45.3-45.3-45.3
		s-45.3,20.3-45.3,45.3c0,11.4,4.3,21.9,11.3,29.9v21.1H131.6V145.6z"/>
	<rect x="182.6" y="168.3" class="st1" width="147.2" height="11.3"/>
	<rect x="210.9" y="202.2" class="st1" width="90.6" height="11.3"/>
	<rect x="154.3" y="304.2" class="st1" width="62.3" height="11.3"/>
</g>
</svg>
