<?xml version="1.0" encoding="utf-8"?>
<!-- Generator: Adobe Illustrator 25.0.1, SVG Export Plug-In . SVG Version: 6.00 Build 0)  -->
<svg version="1.1" id="Layer_1" xmlns="http://www.w3.org/2000/svg" xmlns:xlink="http://www.w3.org/1999/xlink" x="0px" y="0px"
	 viewBox="0 0 512 512" style="enable-background:new 0 0 512 512;" xml:space="preserve">
<style type="text/css">
	.st0{fill:#2A432F;}
	.st1{fill:#F8F1DE;}
</style>
<circle class="st0" cx="255.9" cy="256" r="251.2"/>
<g id="kennel">
</g>
<g id="Kennel">
	<g>
		<path class="st1" d="M237.4,256.1H271c2.2,7.2,8.8,12.3,16.7,12.3c9.6,0,17.4-7.8,17.4-17.4c0-1.7-0.3-3.4-0.7-5
			c-0.7-2.4-1.9-4.5-3.5-6.4c2.7-3.1,4.2-7.1,4.2-11.4c0-9.6-7.8-17.4-17.4-17.4c-8,0-14.7,5.4-16.8,12.7h-33.3
			c-2.1-7.3-8.8-12.7-16.8-12.7c-9.6,0-17.4,7.8-17.4,17.4c0,4.3,1.5,8.3,4.2,11.4c-1.6,1.9-2.8,4-3.5,6.4c-0.5,1.6-0.7,3.2-0.7,5
			c0,9.6,7.8,17.4,17.4,17.4C228.6,268.4,235.3,263.3,237.4,256.1z M228.7,251.2c-0.1,4.3-3.6,7.7-7.9,7.7c-4.4,0-7.9-3.5-7.9-7.9
			c0-1.9,0.6-3.6,1.8-5c0.7-0.9,1.6-1.6,2.7-2.1c1.6-0.8,2.7-2.5,2.7-4.3c0-1.8-1-3.5-2.7-4.3c-2.7-1.3-4.4-4.1-4.4-7.1
			c0-4.4,3.5-7.9,7.9-7.9c4.4,0,7.9,3.5,7.9,7.9c0,2.6,2.1,4.8,4.8,4.8H275c2.6,0,4.8-2.1,4.8-4.8c0-4.4,3.5-7.9,7.9-7.9
			c4.4,0,7.9,3.5,7.9,7.9c0,3-1.7,5.8-4.4,7.1c-1.6,0.8-2.7,2.5-2.7,4.3c0,1.8,1,3.5,2.7,4.3c1.1,0.5,2,1.3,2.7,2.1
			c1.1,1.4,1.8,3.1,1.8,5c0,4.4-3.5,7.9-7.9,7.9c-4.3,0-7.8-3.4-7.9-7.7c-0.1-2.6-2.2-4.6-4.8-4.6h-41.6
			C230.9,246.6,228.8,248.7,228.7,251.2z"/>
		<path class="st1" d="M416.7,413.6l-10.8-60.7h-39v-93.3l18.1,17.3l28.2-26.9L254.2,98.4L95.3,250l28.2,26.9l18.1-17.3V399h172
			l-2.6,14.6L416.7,413.6L416.7,413.6z M397.8,362.5l7.4,41.7h-82.9l0.9-5.1l0.9-4.8l0.9-4.8l3-16.7l0.9-4.8l0.9-4.8l0.1-0.7h27.5
			h4.8h4.8L397.8,362.5L397.8,362.5z M141.6,246.5l-18.1,17.3L109.1,250l145.1-138.5L399.3,250l-14.4,13.7l-18.1-17.3l-0.5-0.4
			L254.2,139L142.1,246L141.6,246.5z M213.8,389.5h-62.7v-16.7h62.7V389.5z M213.8,363.2h-62.7V250.5l4.8-4.5l98.4-93.9l98.4,93.9
			l4.7,4.5v102.4h-35.5l-1.8,10.3h-25.3v-44c0-22.3-18.1-40.4-40.4-40.4c-22.3,0-40.4,18.1-40.4,40.4L213.8,363.2L213.8,363.2z
			 M285.1,389.4h-61.8v-70.2c0-17,13.9-30.9,30.9-30.9c17,0,30.9,13.9,30.9,30.9V389.4z M294.7,389.5v-16.7h23.6l-3,16.7H294.7z"/>
	</g>
</g>
</svg>
