<svg id="Layer_1" data-name="Layer 1" xmlns="http://www.w3.org/2000/svg" viewBox="0 0 447.15 237.02"><defs><style>.cls-1{fill:#fffbeb;}</style></defs><path class="cls-1" d="M446.33,7.61a226,226,0,0,1-3.23,43.66,222.71,222.71,0,0,1-11.88,42.35,226.22,226.22,0,0,1-47.45,74.18,228.05,228.05,0,0,1-72.89,50.58A229.22,229.22,0,0,1,223.58,237a235.24,235.24,0,0,1-88.49-15.78c-1.79-.63-3.49-1.45-5.24-2.18l-5.21-2.26c-1.76-.71-3.42-1.62-5.13-2.44l-5.09-2.52c-.85-.42-1.69-.87-2.51-1.34l-2.47-1.4-5-2.8c-1.66-.91-3.22-2-4.84-3s-3.2-2-4.79-3.06c-3.14-2.13-6.18-4.39-9.28-6.58s-6-4.65-8.92-7-5.67-5-8.5-7.53L60,171.15A216.69,216.69,0,0,1,12.44,95.06,210.09,210.09,0,0,1,1.78,51.73,195.77,195.77,0,0,1,.83,7.61H2.72c2.75,28.9,10,56.83,22.1,82.32a230,230,0,0,0,48.62,67.81,237.92,237.92,0,0,0,68.84,46.14,209,209,0,0,0,81.3,17.94,215,215,0,0,0,82.47-15.09,216.92,216.92,0,0,0,71-45.64,218.47,218.47,0,0,0,48.76-69.71,218.44,218.44,0,0,0,13.34-40.89,222.68,222.68,0,0,0,5.27-42.88Z"/><path class="cls-1" d="M.83,229.41a225.38,225.38,0,0,1,3.22-43.67A222.82,222.82,0,0,1,15.93,143.4,225.27,225.27,0,0,1,136.27,18.64,229,229,0,0,1,223.58,0,235.22,235.22,0,0,1,312.06,15.8c1.79.62,3.5,1.44,5.24,2.18l5.21,2.25c1.76.72,3.42,1.63,5.13,2.45l5.09,2.52c.86.42,1.69.87,2.51,1.34l2.47,1.4,5,2.8c1.66.91,3.23,2,4.84,3s3.2,2,4.79,3.06c3.14,2.13,6.19,4.38,9.28,6.58s6,4.65,8.92,7,5.68,5,8.51,7.53l8.12,7.94A216.6,216.6,0,0,1,434.71,142a210.37,210.37,0,0,1,10.67,43.34,196.94,196.94,0,0,1,.95,44.12h-1.9c-2.75-28.9-10-56.83-22.1-82.32a229.73,229.73,0,0,0-48.62-67.81,237.92,237.92,0,0,0-68.84-46.14,209.11,209.11,0,0,0-81.29-18A217,217,0,0,0,70.09,75.93,218,218,0,0,0,8,186.52a222.11,222.11,0,0,0-5.28,42.89Z"/><path class="cls-1" d="M224.52,59.07c1.5,9.91,2.64,19.81,3.8,29.72s2.08,19.81,2.84,29.72c.38,4.95,1.2,9.91,1.81,14.86a62.6,62.6,0,0,1,.09,14.86,102.37,102.37,0,0,1-2.78,14.86A66.67,66.67,0,0,1,224.52,178h-1.89a66.67,66.67,0,0,1-5.76-14.86,102.37,102.37,0,0,1-2.78-14.86,63.13,63.13,0,0,1,.1-14.86c.6-5,1.42-9.91,1.8-14.86q1.14-14.87,2.84-29.72c1.17-9.91,2.3-19.81,3.8-29.72Z"/></svg>